<svg width="32" height="32" viewBox="0 0 32 32" fill="none" xmlns="http://www.w3.org/2000/svg">
<g clip-path="url(#clip0_24_691)">
<path d="M30.4902 22.7725C30.0041 22.0193 29.0302 21.8216 28.3085 22.3105L27.9284 22.5103L25.9599 20.9406C23.9978 19.3759 21.6234 18.5241 19.2107 18.4092C19.326 17.782 19.6404 16.9417 20.4457 16.1362C20.6836 16.2018 21.5605 16.2235 21.8346 16.2235C23.4401 16.2235 24.8615 15.9102 26.0722 15.2881C26.3026 15.1697 26.3932 14.8871 26.2749 14.6569C26.1565 14.4265 25.8738 14.3359 25.6437 14.4542C24.4664 15.0592 23.0483 15.3347 21.4214 15.2778C24.3591 12.8243 27.6484 10.8783 29.1102 10.0584C28.8585 10.9131 28.3366 12.1784 27.2901 13.2432C27.1087 13.4278 27.1113 13.7246 27.2959 13.9061C27.4804 14.0873 27.7772 14.085 27.9588 13.9003C29.5236 12.3081 30.0466 10.3318 30.1989 9.55602C30.2968 9.05702 29.8701 8.61521 29.3509 8.6219C24.7553 8.70959 20.4168 10.6746 19.8407 15.2845C19.8351 15.3298 19.8342 15.375 19.8369 15.4198C19.5524 15.6971 19.3165 15.9793 19.1214 16.2594V12.3596C21.1509 10.512 21.7914 8.07365 21.2901 5.34084C20.8687 3.04421 19.7309 1.07515 19.2612 0.335273C19.2612 0.335211 19.2612 0.335211 19.2612 0.335211C18.9852 -0.0996018 18.3367 -0.124352 18.0451 0.335211C17.5754 1.07515 16.4376 3.04415 16.0162 5.34084C15.5161 8.06677 16.1509 10.5075 18.1838 12.3588V16.1801C18.0001 15.9261 17.7823 15.671 17.5246 15.4198C17.5273 15.375 17.5265 15.3298 17.5208 15.2845C16.9456 10.6816 12.6045 8.70946 8.01068 8.62184C7.48668 8.61677 7.06525 9.05971 7.16268 9.5559C7.89356 13.2806 10.7108 16.2244 15.5083 16.2244C15.784 16.2244 16.6791 16.2014 16.9159 16.1361C17.7227 16.9423 18.0377 17.7798 18.1528 18.4062C16.2966 18.4837 14.4502 18.9978 12.783 19.9606C12.594 19.8935 12.4222 19.8365 12.2787 19.7936C10.8772 19.3738 9.31906 19.5563 8.00356 20.2939L4.63537 22.1825C4.21631 21.7559 3.55043 21.6476 3.00731 21.9614L1.91525 22.5918C1.27368 22.9623 1.05306 23.7857 1.4235 24.4273L5.4075 31.3276C5.77812 31.9695 6.59856 32.1914 7.243 31.8194L8.335 31.189C8.96631 30.8244 9.18875 30.0216 8.84281 29.3848L9.66487 28.6556C9.9035 28.444 10.2402 28.3731 10.5437 28.4708L14.3318 29.6884C14.8037 29.8713 15.3264 29.9469 15.8484 29.8935L23.4167 29.1169C23.9642 29.0608 24.4964 28.864 24.9561 28.5478C30.5202 24.7179 30.1864 24.9555 30.2351 24.9099C30.8161 24.3662 30.9257 23.4473 30.4902 22.7725ZM27.9142 9.66277C26.2509 10.631 23.4957 12.347 20.9644 14.439C21.9469 10.949 25.5941 9.94396 27.9142 9.66277ZM16.3989 14.4403C13.8704 12.3505 11.1184 10.6358 9.45412 9.66671C12.58 10.0545 15.5444 11.3932 16.3989 14.4403ZM8.24981 10.0576C9.71087 10.8771 13.0018 12.8238 15.9406 15.2783C10.5462 15.4667 8.79606 11.9306 8.24981 10.0576ZM20.3679 5.51009C20.7697 7.70027 20.35 9.54552 19.1214 11.0113V1.98159C19.5854 2.88534 20.1161 4.1374 20.3679 5.51009ZM16.9384 5.51009C17.1901 4.13827 17.7202 2.88702 18.1839 1.98352V11.0101C16.9561 9.54452 16.5366 7.69971 16.9384 5.51009ZM25.3754 21.6736L27.0221 22.9867L24.9617 24.0697C24.2859 24.425 23.5701 24.6487 22.8274 24.7373L22.8385 24.5545C22.8399 24.5304 22.8396 24.5063 22.8372 24.4822C22.7347 23.3956 21.9394 22.5289 20.9032 22.3744C20.899 22.3738 20.8947 22.3731 20.8905 22.3727L17.1285 21.9161C15.9367 21.7365 15.7746 21.2142 13.9293 20.4138C17.6332 18.6151 22.1207 19.0782 25.3754 21.6736ZM29.6164 24.204L24.4247 27.7755C24.0942 28.0028 23.7127 28.1441 23.3211 28.1843L15.7528 28.961C15.2354 29.014 14.9148 28.8914 14.6322 28.8003L10.8305 27.5783C10.2129 27.38 9.52787 27.5239 9.04275 27.9543L8.36568 28.5549L6.84887 25.9277C6.71943 25.7035 6.43262 25.6268 6.20856 25.7561C5.98437 25.8856 5.90756 26.1723 6.037 26.3965C6.29706 26.8469 7.48581 28.9058 8.01487 29.8222C8.12681 30.0162 8.06012 30.2651 7.86618 30.3771L6.77418 31.0075C6.57937 31.1199 6.33143 31.0531 6.21931 30.8588L2.23556 23.9587C2.12362 23.7648 2.19025 23.5158 2.38425 23.4038L3.47625 22.7734C3.6715 22.6607 3.91931 22.7283 4.03112 22.9221L4.939 24.4946C5.0685 24.7188 5.35518 24.7955 5.57931 24.6661C5.8035 24.5367 5.88031 24.25 5.75087 24.0258L5.14293 22.9729L8.46225 21.1117C9.5575 20.4975 10.8506 20.3446 12.0099 20.6917C14.92 21.5631 15.2698 22.5866 16.9963 22.8441C17.0005 22.8447 17.0047 22.8453 17.009 22.8458L20.7707 23.3023C21.3661 23.394 21.8261 23.8982 21.9004 24.5364L21.8841 24.8045L17.1022 25.1168C16.8438 25.1337 16.6481 25.3568 16.6649 25.6151C16.6812 25.8631 16.8873 26.0533 17.1322 26.0533C17.1426 26.0533 17.1529 26.053 17.1633 26.0523C22.2243 25.5951 23.3447 25.9788 25.3979 24.8995C28.9768 23.0167 28.7753 23.1283 28.8227 23.0946C29.1122 22.8896 29.5007 22.968 29.7026 23.2808C29.8904 23.5718 29.8521 23.963 29.6164 24.204Z" fill="#333333"/>
</g>
<defs>
<clipPath id="clip0_24_691">
<rect width="32" height="32" fill="white"/>
</clipPath>
</defs>
</svg>
