<svg width="32" height="32" viewBox="0 0 32 32" fill="none" xmlns="http://www.w3.org/2000/svg">
<path d="M31.0603 26.0996C30.7151 26.0996 30.4353 26.3794 30.4353 26.7246V30.4726C30.4353 30.6256 30.3108 30.75 30.1578 30.75H9.52991C9.37691 30.75 9.25247 30.6256 9.25247 30.4726V22.8892L9.67672 22.4651C9.92078 22.221 9.92078 21.8253 9.67672 21.5811L9.52366 21.4281L10.9472 20.0046C13.357 21.1544 16.346 20.6459 18.229 18.7501C19.4383 17.5408 20.1042 15.9329 20.1042 14.2227C20.1042 10.7321 17.1917 7.81962 13.7011 7.81962C12.0488 7.81962 10.4412 8.46912 9.25247 9.61769V4.23419C9.25247 4.08119 9.37697 3.95675 9.52991 3.95675H11.8645V4.70444C11.8645 5.71888 12.7128 6.56787 13.7272 6.56787H25.9605C26.9745 6.56787 27.8238 5.71844 27.8238 4.70444V3.95675H30.1578C30.3108 3.95675 30.4352 4.08119 30.4352 4.23419V21.2304C30.4352 21.5755 30.715 21.8554 31.0602 21.8554C31.4054 21.8554 31.6852 21.5755 31.6852 21.2304V4.23419C31.6852 3.39194 31 2.70675 30.1578 2.70675L24.6072 2.70581V2.27588C24.6072 1.02094 23.5862 0 22.3313 0H17.3569C16.102 0 15.081 1.02094 15.081 2.27588V2.70581L9.52991 2.70675C8.68766 2.70675 8.00247 3.392 8.00247 4.23419V11.3029C7.08729 13.0922 7.06828 15.2253 7.94572 17.0288L6.53472 18.4398L6.39516 18.3003C6.1511 18.0562 5.75541 18.0563 5.51129 18.3003L1.16591 22.6457C0.0313477 23.7804 0.0312226 25.6758 1.16591 26.8106C2.3006 27.9453 4.19622 27.9453 5.33097 26.8105L8.00247 24.1387V30.4724C8.00247 31.3147 8.68766 31.9999 9.52991 31.9999H30.1578C31 31.9999 31.6852 31.3146 31.6852 30.4724V26.7244C31.6853 26.3794 31.4055 26.0996 31.0603 26.0996ZM15.706 3.95581C16.0512 3.95581 16.331 3.67594 16.331 3.33081V2.27588C16.331 1.71019 16.7912 1.25 17.3569 1.25H22.3313C22.897 1.25 23.3572 1.71019 23.3572 2.27588V3.33081C23.3572 3.67594 23.637 3.95581 23.9822 3.95581H26.573V4.70544C26.573 5.03856 26.2942 5.31712 25.9612 5.31712H13.7273C13.3945 5.31712 13.1148 5.03856 13.1148 4.70544V3.95581H15.706ZM9.90972 17.711C8.33053 15.9973 8.11366 13.3417 9.39353 11.3939C10.3381 9.95525 11.9805 9.06962 13.7011 9.06962C15.257 9.06962 16.7425 9.78587 17.7186 10.9963C19.2333 12.8794 19.2291 15.5881 17.7052 17.4662C15.7536 19.8674 12.0073 19.9891 9.90972 17.711ZM8.62135 18.121C8.97741 18.5842 9.39728 18.9667 9.84747 19.3362L8.63941 20.5443L7.41866 19.3237L8.62135 18.121ZM4.44704 25.9267C3.79385 26.5799 2.70347 26.5805 2.04985 25.9268C1.38897 25.2659 1.38897 24.1906 2.04985 23.5296L5.95329 19.6261L8.35047 22.0229L4.44704 25.9267Z" fill="#333333"/>
<path d="M20.9938 2.65857C20.9928 2.65857 20.9918 2.65857 20.9907 2.65857C20.6608 2.66013 19.0452 2.66013 18.714 2.65857C18.7129 2.65857 18.7119 2.65857 18.7109 2.65857C18.3671 2.65857 18.0876 2.93638 18.0859 3.28051C18.0843 3.62563 18.3628 3.90682 18.7079 3.90857H20.9968C21.3419 3.90688 21.6204 3.62569 21.6187 3.28051C21.6171 2.93644 21.3375 2.65857 20.9938 2.65857Z" fill="#333333"/>
<path d="M15.2765 22.0471C13.434 22.0471 11.9351 23.5461 11.9351 25.3886C11.9351 27.2311 13.434 28.7301 15.2765 28.7301C16.6337 28.7301 17.8461 27.9197 18.3651 26.6657C18.4971 26.3468 18.3456 25.9812 18.0266 25.8492C17.7076 25.7172 17.3421 25.8687 17.2101 26.1877C16.8851 26.9729 16.1261 27.4801 15.2764 27.4801C14.1232 27.4801 13.185 26.5419 13.185 25.3887C13.185 24.2354 14.1232 23.2972 15.2764 23.2972C15.6216 23.2972 15.9014 23.0173 15.9014 22.6722C15.9014 22.3271 15.6217 22.0471 15.2765 22.0471Z" fill="#333333"/>
<path d="M26.8736 11.934H21.7388C21.3936 11.934 21.1138 12.2138 21.1138 12.559C21.1138 12.9041 21.3936 13.184 21.7388 13.184H26.8736C27.2188 13.184 27.4986 12.9041 27.4986 12.559C27.4986 12.2138 27.2188 11.934 26.8736 11.934Z" fill="#333333"/>
<path d="M24.9292 16.1494C25.2744 16.1494 25.5542 15.8695 25.5542 15.5244C25.5542 15.1793 25.2744 14.8994 24.9292 14.8994H21.7388C21.3936 14.8994 21.1138 15.1793 21.1138 15.5244C21.1138 15.8695 21.3936 16.1494 21.7388 16.1494H24.9292Z" fill="#333333"/>
<path d="M27.4986 23.8446C27.4986 23.4995 27.2188 23.2196 26.8736 23.2196H21.3101C20.9649 23.2196 20.6851 23.4995 20.6851 23.8446C20.6851 24.1897 20.9649 24.4696 21.3101 24.4696H26.8736C27.2187 24.4696 27.4986 24.1897 27.4986 23.8446Z" fill="#333333"/>
<path d="M21.3096 26.1851C20.9644 26.1851 20.6846 26.4649 20.6846 26.8101C20.6846 27.1552 20.9644 27.4351 21.3096 27.4351H24.9287C25.2739 27.4351 25.5537 27.1552 25.5537 26.8101C25.5537 26.4649 25.2739 26.1851 24.9287 26.1851H21.3096Z" fill="#333333"/>
<path d="M15.1026 24.4994C14.8585 24.2554 14.4628 24.2554 14.2187 24.4994C13.9746 24.7434 13.9746 25.1392 14.2187 25.3833L15.0717 26.2362C15.3106 26.4751 15.7161 26.4757 15.9556 26.2362L18.2297 23.9622C18.4738 23.7181 18.4738 23.3224 18.2297 23.0782C17.9856 22.8343 17.5899 22.8342 17.3458 23.0782L15.5136 24.9104L15.1026 24.4994Z" fill="#333333"/>
<path d="M31.6384 23.7481C31.5073 23.4337 31.1375 23.2798 30.8222 23.41C30.5075 23.5399 30.3535 23.9118 30.484 24.2263C30.6147 24.541 30.9853 24.6948 31.3003 24.5644C31.6142 24.4343 31.7694 24.0623 31.6384 23.7481Z" fill="#333333"/>
<path d="M12.4551 16.5122C12.6941 16.751 13.0995 16.7516 13.339 16.5122L16.6121 13.2392C16.8561 12.9951 16.8561 12.5993 16.6121 12.3552C16.368 12.1113 15.9723 12.1112 15.7282 12.3552L12.8971 15.1863L11.7373 14.0266C11.4933 13.7826 11.0975 13.7826 10.8535 14.0266C10.6094 14.2707 10.6094 14.6664 10.8535 14.9105L12.4551 16.5122Z" fill="#333333"/>
</svg>
