<svg width="32" height="32" viewBox="0 0 32 32" fill="none" xmlns="http://www.w3.org/2000/svg">
<path d="M31.0602 26.0996C30.715 26.0996 30.4352 26.3794 30.4352 26.7246V30.4726C30.4352 30.6256 30.3107 30.75 30.1578 30.75H9.52982C9.37682 30.75 9.25238 30.6256 9.25238 30.4726V22.8892L9.67663 22.4651C9.92069 22.221 9.92069 21.8253 9.67663 21.5811L9.52357 21.4281L10.9471 20.0046C13.3569 21.1544 16.3459 20.6459 18.2289 18.7501C19.4382 17.5408 20.1041 15.9329 20.1041 14.2227C20.1041 10.7321 17.1916 7.81962 13.701 7.81962C12.0487 7.81962 10.4411 8.46912 9.25238 9.61769V4.23419C9.25238 4.08119 9.37688 3.95675 9.52982 3.95675H11.8644V4.70444C11.8644 5.71888 12.7128 6.56787 13.7271 6.56787H25.9604C26.9744 6.56787 27.8237 5.71844 27.8237 4.70444V3.95675H30.1577C30.3107 3.95675 30.4351 4.08119 30.4351 4.23419V21.2304C30.4351 21.5755 30.7149 21.8554 31.0601 21.8554C31.4053 21.8554 31.6851 21.5755 31.6851 21.2304V4.23419C31.6851 3.39194 30.9999 2.70675 30.1577 2.70675L24.6071 2.70581V2.27588C24.6071 1.02094 23.5861 0 22.3313 0H17.3568C16.1019 0 15.0809 1.02094 15.0809 2.27588V2.70581L9.52982 2.70675C8.68757 2.70675 8.00238 3.392 8.00238 4.23419V11.3029C7.08719 13.0922 7.06819 15.2253 7.94563 17.0288L6.53463 18.4398L6.39507 18.3003C6.15101 18.0562 5.75532 18.0563 5.51119 18.3003L1.16582 22.6457C0.0312561 23.7804 0.0311311 25.6758 1.16582 26.8106C2.30051 27.9453 4.19613 27.9453 5.33088 26.8105L8.00238 24.1387V30.4724C8.00238 31.3147 8.68757 31.9999 9.52982 31.9999H30.1577C30.9999 31.9999 31.6851 31.3146 31.6851 30.4724V26.7244C31.6852 26.3794 31.4054 26.0996 31.0602 26.0996ZM15.7059 3.95581C16.0511 3.95581 16.3309 3.67594 16.3309 3.33081V2.27588C16.3309 1.71019 16.7911 1.25 17.3568 1.25H22.3313C22.8969 1.25 23.3571 1.71019 23.3571 2.27588V3.33081C23.3571 3.67594 23.6369 3.95581 23.9821 3.95581H26.5729V4.70544C26.5729 5.03856 26.2941 5.31712 25.9611 5.31712H13.7272C13.3944 5.31712 13.1147 5.03856 13.1147 4.70544V3.95581H15.7059ZM9.90963 17.711C8.33044 15.9973 8.11357 13.3417 9.39344 11.3939C10.338 9.95525 11.9804 9.06962 13.701 9.06962C15.2569 9.06962 16.7424 9.78587 17.7185 10.9963C19.2332 12.8794 19.229 15.5881 17.7051 17.4662C15.7535 19.8674 12.0073 19.9891 9.90963 17.711ZM8.62126 18.121C8.97732 18.5842 9.39719 18.9667 9.84738 19.3362L8.63932 20.5443L7.41857 19.3237L8.62126 18.121ZM4.44694 25.9267C3.79376 26.5799 2.70338 26.5805 2.04976 25.9268C1.38888 25.2659 1.38888 24.1906 2.04976 23.5296L5.95319 19.6261L8.35038 22.0229L4.44694 25.9267Z" fill="#13AB4E"/>
<path d="M20.9936 2.65857C20.9926 2.65857 20.9916 2.65857 20.9905 2.65857C20.6606 2.66013 19.045 2.66013 18.7138 2.65857C18.7128 2.65857 18.7118 2.65857 18.7107 2.65857C18.3669 2.65857 18.0874 2.93638 18.0858 3.28051C18.0841 3.62563 18.3626 3.90682 18.7077 3.90857H20.9966C21.3417 3.90688 21.6202 3.62569 21.6185 3.28051C21.6169 2.93644 21.3373 2.65857 20.9936 2.65857Z" fill="#13AB4E"/>
<path d="M15.2764 22.0471C13.4339 22.0471 11.935 23.5461 11.935 25.3886C11.935 27.2311 13.4339 28.7301 15.2764 28.7301C16.6336 28.7301 17.846 27.9197 18.365 26.6657C18.497 26.3468 18.3455 25.9812 18.0265 25.8492C17.7075 25.7172 17.342 25.8687 17.21 26.1877C16.8851 26.9729 16.1261 27.4801 15.2764 27.4801C14.1231 27.4801 13.1849 26.5419 13.1849 25.3887C13.1849 24.2354 14.1232 23.2972 15.2764 23.2972C15.6216 23.2972 15.9014 23.0173 15.9014 22.6722C15.9014 22.3271 15.6216 22.0471 15.2764 22.0471Z" fill="#13AB4E"/>
<path d="M26.8733 11.934H21.7384C21.3933 11.934 21.1134 12.2138 21.1134 12.559C21.1134 12.9041 21.3933 13.184 21.7384 13.184H26.8733C27.2185 13.184 27.4983 12.9041 27.4983 12.559C27.4983 12.2138 27.2184 11.934 26.8733 11.934Z" fill="#13AB4E"/>
<path d="M24.9289 16.1494C25.2741 16.1494 25.5539 15.8695 25.5539 15.5244C25.5539 15.1793 25.2741 14.8994 24.9289 14.8994H21.7384C21.3933 14.8994 21.1134 15.1793 21.1134 15.5244C21.1134 15.8695 21.3933 16.1494 21.7384 16.1494H24.9289Z" fill="#13AB4E"/>
<path d="M27.4983 23.8446C27.4983 23.4995 27.2185 23.2196 26.8733 23.2196H21.3098C20.9646 23.2196 20.6848 23.4995 20.6848 23.8446C20.6848 24.1897 20.9646 24.4696 21.3098 24.4696H26.8733C27.2184 24.4696 27.4983 24.1897 27.4983 23.8446Z" fill="#13AB4E"/>
<path d="M21.3097 26.1851C20.9645 26.1851 20.6847 26.4649 20.6847 26.8101C20.6847 27.1552 20.9645 27.4351 21.3097 27.4351H24.9288C25.274 27.4351 25.5538 27.1552 25.5538 26.8101C25.5538 26.4649 25.274 26.1851 24.9288 26.1851H21.3097Z" fill="#13AB4E"/>
<path d="M15.1024 24.4994C14.8583 24.2554 14.4626 24.2554 14.2185 24.4994C13.9744 24.7434 13.9744 25.1392 14.2185 25.3833L15.0715 26.2362C15.3104 26.4751 15.7159 26.4757 15.9554 26.2362L18.2295 23.9622C18.4736 23.7181 18.4736 23.3224 18.2295 23.0782C17.9854 22.8343 17.5897 22.8342 17.3456 23.0782L15.5134 24.9104L15.1024 24.4994Z" fill="#13AB4E"/>
<path d="M31.6384 23.7481C31.5073 23.4337 31.1375 23.2798 30.8222 23.41C30.5075 23.5399 30.3535 23.9118 30.4841 24.2263C30.6147 24.541 30.9853 24.6948 31.3003 24.5644C31.6143 24.4343 31.7694 24.0623 31.6384 23.7481Z" fill="#13AB4E"/>
<path d="M12.4552 16.5122C12.6941 16.751 13.0996 16.7516 13.3391 16.5122L16.6121 13.2392C16.8562 12.9951 16.8562 12.5993 16.6121 12.3552C16.3681 12.1113 15.9723 12.1112 15.7283 12.3552L12.8971 15.1863L11.7374 14.0266C11.4933 13.7826 11.0976 13.7826 10.8535 14.0266C10.6094 14.2707 10.6094 14.6664 10.8535 14.9105L12.4552 16.5122Z" fill="#13AB4E"/>
</svg>
