<svg width="32" height="32" viewBox="0 0 32 32" fill="none" xmlns="http://www.w3.org/2000/svg">
<path d="M24.4831 8.29744C24.4831 9.26687 23.7773 9.85645 23.262 10.2891C23.0668 10.453 22.7035 10.752 22.7045 10.8637C22.708 11.3018 22.3557 11.6517 21.9175 11.6517C21.9153 11.6517 21.9131 11.6517 21.9109 11.6517C21.4758 11.6517 21.1212 11.3126 21.1177 10.8767C21.1107 10.0174 21.7378 9.50286 22.2417 9.07981C22.637 8.74782 22.8963 8.51421 22.8963 8.30044C22.8963 7.86769 22.5442 7.5156 22.1115 7.5156C21.6785 7.5156 21.3264 7.86769 21.3264 8.30044C21.3264 8.73865 20.9712 9.09383 20.533 9.09383C20.0948 9.09383 19.7396 8.73865 19.7396 8.30044C19.7396 6.99276 20.8035 5.92882 22.1113 5.92882C23.4192 5.92874 24.4831 6.98967 24.4831 8.29744ZM21.9329 12.3841C21.4947 12.3841 21.157 12.7393 21.157 13.1775V13.1836C21.157 13.6218 21.4947 13.974 21.9329 13.974C22.371 13.974 22.7263 13.6157 22.7263 13.1775C22.7263 12.7393 22.3711 12.3841 21.9329 12.3841ZM5.94089 17.9108C5.50268 17.9108 5.1475 18.2659 5.1475 18.7041C5.1475 19.1424 5.50268 19.4975 5.94089 19.4975H6.00701C6.44522 19.4975 6.8004 19.1424 6.8004 18.7041C6.8004 18.2659 6.44522 17.9108 6.00701 17.9108H5.94089ZM8.69827 17.9108C8.26005 17.9108 7.90488 18.2659 7.90488 18.7041C7.90488 19.1424 8.26005 19.4975 8.69827 19.4975H8.7643C9.20251 19.4975 9.55769 19.1424 9.55769 18.7041C9.55769 18.2659 9.20251 17.9108 8.7643 17.9108H8.69827ZM32 5.23866V14.1688C32 16.2832 30.3046 17.9989 28.1902 17.9989H17.9011C17.7 17.9989 17.5343 17.9978 17.3957 17.9949C17.2506 17.9919 17.0871 17.9907 17.0234 17.9978C16.957 18.0418 16.7943 18.1909 16.6374 18.3354C16.5753 18.3926 16.5049 18.4555 16.429 18.5248L13.518 21.1781C13.2858 21.3899 12.9423 21.4448 12.6547 21.318C12.3672 21.1911 12.1653 20.9064 12.1653 20.5921V12.1807H3.8541C2.61448 12.1807 1.58678 13.1965 1.58678 14.436V23.3661C1.58678 24.6056 2.61457 25.5802 3.8541 25.5802H15.3471C15.545 25.5802 15.7302 25.6711 15.8763 25.8045L18.2479 27.9911V20.4505C18.2479 20.0123 18.6031 19.6571 19.0413 19.6571C19.4795 19.6571 19.8347 20.0123 19.8347 20.4505V29.7894C19.8347 30.1036 19.6549 30.3841 19.3672 30.511C19.2644 30.5564 19.161 30.5743 19.0529 30.5743C18.8586 30.5743 18.6669 30.4945 18.5179 30.3584L15.0396 27.1669H3.8541C1.73964 27.1669 0 25.4805 0 23.366V14.436C0 12.3216 1.73964 10.5939 3.8541 10.5939H12.1653V5.23866C12.1653 3.1242 13.9182 1.4259 16.0327 1.4259H28.1903C30.3046 1.4259 32 3.1242 32 5.23866ZM30.4132 5.23866C30.4132 3.99913 29.4297 3.01268 28.1902 3.01268H16.0327C14.7932 3.01268 13.7521 3.99913 13.7521 5.23866V11.3947V18.7939L15.3472 17.3523C15.4211 17.2849 15.5039 17.2231 15.5643 17.1674C16.2927 16.4962 16.479 16.3889 17.4292 16.4085C17.5587 16.4112 17.7131 16.4122 17.9011 16.4122H28.1902C29.4297 16.4122 30.4132 15.4083 30.4132 14.1689V5.23866Z" fill="#333333"/>
</svg>
