<svg width="32" height="32" viewBox="0 0 32 32" fill="none" xmlns="http://www.w3.org/2000/svg">
<g clip-path="url(#clip0_24_688)">
<path d="M29.4322 24.8775V23.98C29.4322 23.7212 29.2225 23.5113 28.9634 23.5113C28.7046 23.5113 28.4947 23.7212 28.4947 23.98V24.7244C28.4622 24.7234 28.4297 24.7229 28.397 24.7229H18.1197V21.2886H28.4947V22.0945C28.4947 22.3533 28.7046 22.5633 28.9634 22.5633C29.2225 22.5633 29.4322 22.3533 29.4322 22.0945V21.1973C29.4322 20.7308 29.0528 20.3511 28.586 20.3511H24.4639V19.4246C24.4639 17.4502 23.3079 16.1502 20.93 15.4502C20.9158 15.4461 20.9016 15.4424 20.887 15.4397L16.2459 14.5371V13.5581C16.4077 13.4463 16.5657 13.3242 16.7198 13.1917C17.5525 12.4746 18.084 11.4478 18.2159 10.3242C18.8399 10.2537 19.3265 9.72292 19.3265 9.08034V8.25319C19.732 8.06325 20.0132 7.65138 20.0132 7.17482C20.0132 6.60695 19.6133 6.13063 19.0804 6.01271V5.71534C19.0804 2.73609 16.6565 0.3125 13.6775 0.3125H13.229C11.4851 0.3125 9.83937 1.16138 8.82618 2.58326C8.67604 2.79419 8.72511 3.08692 8.93605 3.23707C9.14699 3.38746 9.43947 3.33814 9.58961 3.1272C9.95924 2.6084 10.4309 2.18189 10.9661 1.86743V2.75464C10.9661 3.01368 11.176 3.22339 11.4348 3.22339C11.6939 3.22339 11.9036 3.01368 11.9036 2.75464V1.45215C12.261 1.34058 12.6338 1.27344 13.0139 1.25513V3.87427C13.0139 4.13306 13.2237 4.34303 13.4827 4.34303C13.7415 4.34303 13.9514 4.13306 13.9514 3.87427V1.2583C14.3152 1.28028 14.6675 1.34619 15.003 1.45069V2.75464C15.003 3.01368 15.2127 3.22339 15.4717 3.22339C15.7305 3.22339 15.9405 3.01368 15.9405 2.75464V1.8667C17.2574 2.64405 18.1429 4.07813 18.1429 5.7151V5.98463H8.76368V5.7151C8.76368 5.36231 8.80494 5.01148 8.88624 4.67188C8.9463 4.42017 8.79103 4.16724 8.53932 4.10694C8.28712 4.04639 8.03468 4.20216 7.97438 4.45387C7.87599 4.86475 7.82618 5.28907 7.82618 5.7151V6.01271C7.29322 6.13063 6.89332 6.60695 6.89332 7.17482C6.89332 7.65114 7.17481 8.06325 7.58009 8.25319V9.08034C7.58009 9.72267 8.06666 10.2537 8.69069 10.324C8.82252 11.4478 9.35426 12.4746 10.1868 13.1917C10.3408 13.3242 10.4988 13.4463 10.6607 13.5579V14.5371L6.01954 15.4395C6.00489 15.4424 5.99073 15.4458 5.97657 15.45C3.59863 16.1502 2.44263 17.4502 2.44263 19.4246V24.8772C0.993893 25.3211 -0.0625057 26.6712 -0.0625057 28.2635C-0.0625057 30.2156 1.52563 31.804 3.47803 31.804H28.397C30.3492 31.804 31.9376 30.2156 31.9376 28.2635C31.9376 26.6712 30.8812 25.3211 29.4322 24.8775ZM20.9912 16.4522C22.741 17.0415 23.5264 17.9681 23.5264 19.4246V20.3511H20.9912V16.4522ZM7.83082 7.17482C7.83082 7.03541 7.9441 6.92213 8.08326 6.92213H18.8233C18.9627 6.92213 19.076 7.03566 19.076 7.17482C19.076 7.31398 18.9624 7.42726 18.8233 7.42726H8.08326C7.9441 7.42726 7.83082 7.31422 7.83082 7.17482ZM9.59669 9.85329C9.59108 9.59841 9.38307 9.39455 9.12794 9.39455H8.8318C8.6587 9.39455 8.51759 9.25368 8.51759 9.08034V8.36501H18.3889V9.08034C18.3889 9.25368 18.2481 9.39455 18.0747 9.39455H17.7786C17.5237 9.39455 17.3155 9.59841 17.3101 9.85329C17.2879 10.8848 16.8499 11.8426 16.1082 12.4812C15.3355 13.1465 14.4424 13.49 13.4534 13.5022C12.4644 13.49 11.5713 13.1465 10.7986 12.4812C10.0569 11.8426 9.61867 10.8848 9.59669 9.85329ZM15.3084 14.0694V14.9236C15.3084 15.9463 14.4761 16.7786 13.4534 16.7786C12.4304 16.7786 11.5982 15.9466 11.5982 14.9236V14.0694C12.177 14.3081 12.7952 14.4324 13.448 14.4397H13.4585C14.1114 14.4324 14.7295 14.3084 15.3084 14.0694ZM9.12697 15.7906L10.7168 15.4812C10.9758 16.7549 12.1045 17.7161 13.4534 17.7161C14.8023 17.7161 15.9307 16.7549 16.19 15.4812L17.7796 15.7906V18.4373C17.7796 18.6936 17.5708 18.9021 17.3145 18.9021H9.5923C9.33571 18.9021 9.12721 18.6936 9.12721 18.4373V15.7906H9.12697ZM6.85279 16.2327L8.18971 15.9727V18.4373C8.18971 19.2107 8.81886 19.8396 9.5923 19.8396H17.3145C18.0877 19.8396 18.7171 19.2107 18.7171 18.4373V15.9727L20.0537 16.2327V20.3511H18.0286C17.5618 20.3511 17.1822 20.7308 17.1822 21.1973V24.7229H6.85279V16.2327ZM3.38037 19.4246C3.38037 17.9681 4.16553 17.0415 5.91529 16.4522V20.3511H3.38037V19.4246ZM3.38037 21.2886H5.91529V24.7229H3.47803C3.44531 24.7229 3.4126 24.7234 3.38037 24.7244V21.2886ZM28.397 30.8665H3.47803C2.04272 30.8665 0.874996 29.6988 0.874996 28.2635C0.874996 26.8282 2.04272 25.6604 3.47803 25.6604H28.397C29.8323 25.6604 31.0001 26.8282 31.0001 28.2635C31.0001 29.6988 29.8323 30.8665 28.397 30.8665Z" fill="#333333"/>
<path d="M28.397 26.4756H3.47803C2.49195 26.4756 1.6897 27.2778 1.6897 28.2637C1.6897 29.2498 2.49195 30.0518 3.47803 30.0518H28.397C29.3831 30.0518 30.1851 29.2498 30.1851 28.2637C30.1854 27.2778 29.3831 26.4756 28.397 26.4756ZM3.47803 29.1145C3.05664 29.1145 2.70581 28.8064 2.63892 28.4036C2.63819 28.4001 2.6377 28.3967 2.63721 28.3931C2.63599 28.3862 2.63501 28.3792 2.63428 28.3721C2.63379 28.3684 2.6333 28.365 2.63281 28.3613C2.63135 28.3472 2.62989 28.3328 2.62915 28.3184C2.62793 28.3003 2.6272 28.282 2.6272 28.2637C2.6272 28.2454 2.62793 28.2273 2.62915 28.2092C2.62989 28.1948 2.63135 28.1804 2.63281 28.1663C2.6333 28.1626 2.63379 28.1592 2.63428 28.1555C2.63501 28.1484 2.63599 28.1414 2.63721 28.1345C2.6377 28.1309 2.63819 28.1274 2.63892 28.1238C2.70581 27.7212 3.05664 27.4131 3.47803 27.4131C3.94703 27.4131 4.32862 27.7947 4.32862 28.2637C4.32862 28.7327 3.94703 29.1143 3.47803 29.1145ZM9.75539 29.1145H5.05055C5.188 28.8613 5.26612 28.5715 5.26612 28.2637C5.26612 27.9561 5.188 27.6663 5.05055 27.4131H9.75539C9.61794 27.6663 9.53981 27.9561 9.53981 28.2637C9.53981 28.5713 9.61794 28.8613 9.75539 29.1145ZM11.3279 29.1145C10.8587 29.1145 10.4773 28.7329 10.4773 28.2637C10.4773 27.7947 10.8587 27.4131 11.3279 27.4131C11.7969 27.4131 12.1785 27.7947 12.1785 28.2637C12.1785 28.7329 11.7969 29.1145 11.3279 29.1145ZM18.9747 29.1145H12.9004C13.0379 28.8613 13.116 28.5715 13.116 28.2637C13.116 27.9561 13.0379 27.6663 12.9004 27.4131H18.9747C18.8372 27.6663 18.7591 27.9561 18.7591 28.2637C18.7591 28.5713 18.8372 28.8613 18.9747 29.1145ZM20.5472 29.1145C20.0782 29.1145 19.6966 28.7329 19.6966 28.2637C19.6966 27.7947 20.0782 27.4131 20.5472 27.4131C21.0164 27.4131 21.3978 27.7947 21.3978 28.2637C21.3978 28.7329 21.0164 29.1145 20.5472 29.1145ZM22.1197 29.1145C22.2571 28.8613 22.3353 28.5715 22.3353 28.2637C22.3353 27.9561 22.2571 27.6663 22.1197 27.4131H26.8245C26.6871 27.6663 26.6089 27.9561 26.6089 28.2637C26.6089 28.5715 26.6871 28.8613 26.8245 29.1145H22.1197ZM28.397 29.1145C27.928 29.1145 27.5465 28.7327 27.5465 28.2637C27.5465 27.7947 27.928 27.4131 28.397 27.4131C28.866 27.4131 29.2479 27.7947 29.2479 28.2637C29.2479 28.7329 28.866 29.1145 28.397 29.1145Z" fill="#333333"/>
</g>
<defs>
<clipPath id="clip0_24_688">
<rect width="32" height="32" fill="white"/>
</clipPath>
</defs>
</svg>
