<svg width="103" height="72" viewBox="0 0 103 72" fill="none" xmlns="http://www.w3.org/2000/svg">
<path opacity="0.1" d="M58 43.72C58 36.232 59.152 29.8 61.456 24.424C63.76 18.856 66.736 14.344 70.384 10.888C74.032 7.23999 78.16 4.64799 82.768 3.11199C87.568 1.38399 92.272 0.519989 96.88 0.519989V10.6C91.888 10.6 87.184 12.328 82.768 15.784C78.544 19.048 76.048 23.56 75.28 29.32C75.856 29.128 76.528 28.936 77.296 28.744C77.872 28.552 78.544 28.36 79.312 28.168C80.272 27.976 81.328 27.88 82.48 27.88C88.24 27.88 93.04 30.088 96.88 34.504C100.72 38.728 102.64 43.72 102.64 49.48C102.64 55.24 100.624 60.328 96.592 64.744C92.752 68.968 87.568 71.08 81.04 71.08C73.744 71.08 68.08 68.392 64.048 63.016C60.016 57.448 58 51.016 58 43.72ZM0.4 43.72C0.4 36.232 1.552 29.8 3.856 24.424C6.16 18.856 9.136 14.344 12.784 10.888C16.432 7.23999 20.56 4.64799 25.168 3.11199C29.968 1.38399 34.672 0.519989 39.28 0.519989V10.6C34.288 10.6 29.584 12.328 25.168 15.784C20.944 19.048 18.448 23.56 17.68 29.32C18.256 29.128 18.928 28.936 19.696 28.744C20.272 28.552 20.944 28.36 21.712 28.168C22.672 27.976 23.728 27.88 24.88 27.88C30.64 27.88 35.44 30.088 39.28 34.504C43.12 38.728 45.04 43.72 45.04 49.48C45.04 55.24 43.024 60.328 38.992 64.744C35.152 68.968 29.968 71.08 23.44 71.08C16.144 71.08 10.48 68.392 6.448 63.016C2.416 57.448 0.4 51.016 0.4 43.72Z" fill="#13AB4E"/>
</svg>
