<svg width="32" height="32" viewBox="0 0 32 32" fill="none" xmlns="http://www.w3.org/2000/svg">
<path d="M29.3536 6.14642L24.3536 1.14642C24.2598 1.05267 24.1326 1 24 1H11.5C10.9698 1.00061 10.4614 1.21152 10.0865 1.58646C9.71151 1.9614 9.50061 2.46975 9.5 3V17.5H10.5V3C10.5003 2.73488 10.6058 2.4807 10.7932 2.29323C10.9807 2.10576 11.2349 2.0003 11.5 2H23.5V5C23.5006 5.53025 23.7115 6.0386 24.0865 6.41354C24.4614 6.78849 24.9698 6.99939 25.5 7H28.5V29C28.4997 29.2651 28.3942 29.5193 28.2068 29.7068C28.0193 29.8942 27.7651 29.9997 27.5 30H11.5C11.2541 30.0002 11.0167 29.9096 10.8335 29.7455L10.1665 30.4906C10.533 30.8189 11.0079 31.0003 11.5 31H27.5C28.0302 30.9994 28.5386 30.7885 28.9135 30.4135C29.2885 30.0386 29.4994 29.5302 29.5 29V6.5C29.5 6.36739 29.4473 6.24021 29.3536 6.14642ZM24.5 5V2.70709L27.7929 6H25.5C25.2349 5.9997 24.9807 5.89424 24.7932 5.70677C24.6058 5.5193 24.5003 5.26512 24.5 5Z" fill="#13ab4e"/>
<path d="M11.5 3H13.5V4H11.5V3Z" fill="#13ab4e"/>
<path d="M14.5 3H18V4H14.5V3Z" fill="#13ab4e"/>
<path d="M11.5 5H14.5V6H11.5V5Z" fill="#13ab4e"/>
<path d="M11.5 8H15V9H11.5V8Z" fill="#13ab4e"/>
<path d="M16 8H20V9H16V8Z" fill="#13ab4e"/>
<path d="M11.5 10H16V11H11.5V10Z" fill="#13ab4e"/>
<path d="M14 12H19V13H14V12Z" fill="#13ab4e"/>
<path d="M20 12H24.5V13H20V12Z" fill="#13ab4e"/>
<path d="M25.5 12H27.5V13H25.5V12Z" fill="#13ab4e"/>
<path d="M11.5 14H16.5V15H11.5V14Z" fill="#13ab4e"/>
<path d="M17.5 14H22V15H17.5V14Z" fill="#13ab4e"/>
<path d="M23 14H27.5V15H23V14Z" fill="#13ab4e"/>
<path d="M11.5 16H19V17H11.5V16Z" fill="#13ab4e"/>
<path d="M20 16H24.5V17H20V16Z" fill="#13ab4e"/>
<path d="M25.5 16H27.5V17H25.5V16Z" fill="#13ab4e"/>
<path d="M14.5 25.5C14.3674 25.5 14.2402 25.5527 14.1465 25.6465C14.0527 25.7402 14 25.8674 14 26V29C14 29.1326 14.0527 29.2598 14.1465 29.3535C14.2402 29.4473 14.3674 29.5 14.5 29.5H17.5C17.6326 29.5 17.7598 29.4473 17.8535 29.3535C17.9473 29.2598 18 29.1326 18 29V26C18 25.8674 17.9473 25.7402 17.8535 25.6465C17.7598 25.5527 17.6326 25.5 17.5 25.5H14.5ZM17 28.5H15V26.5H17V28.5Z" fill="#13ab4e"/>
<path d="M19 29C19 29.1326 19.0527 29.2598 19.1465 29.3535C19.2402 29.4473 19.3674 29.5 19.5 29.5H22.5C22.6326 29.5 22.7598 29.4473 22.8535 29.3535C22.9473 29.2598 23 29.1326 23 29V23.5C23 23.3674 22.9473 23.2402 22.8535 23.1465C22.7598 23.0527 22.6326 23 22.5 23H19.5C19.3674 23 19.2402 23.0527 19.1465 23.1465C19.0527 23.2402 19 23.3674 19 23.5V29ZM20 24H22V28.5H20V24Z" fill="#13ab4e"/>
<path d="M24.5 29.5H27.5C27.6326 29.5 27.7598 29.4473 27.8535 29.3535C27.9473 29.2598 28 29.1326 28 29V21.5C28 21.3674 27.9473 21.2402 27.8535 21.1465C27.7598 21.0527 27.6326 21 27.5 21H24.5C24.3674 21 24.2402 21.0527 24.1465 21.1465C24.0527 21.2402 24 21.3674 24 21.5V29C24 29.1326 24.0527 29.2598 24.1465 29.3535C24.2402 29.4473 24.3674 29.5 24.5 29.5V29.5ZM25 22H27V28.5H25V22Z" fill="#13ab4e"/>
<path d="M3.50003 23.9999C3.50142 22.8437 3.9473 21.7323 4.74538 20.8956C5.54346 20.059 6.63265 19.5612 7.78753 19.5053L7.14646 20.1464L7.85362 20.8535L9.35362 19.3535C9.44738 19.2597 9.50006 19.1326 9.50006 18.9999C9.50006 18.8673 9.44738 18.7401 9.35362 18.6464L7.85362 17.1464L7.14646 17.8535L7.79705 18.5041C6.60451 18.5482 5.45866 18.979 4.53239 19.7314C3.60612 20.4838 2.94968 21.5171 2.66212 22.6753C2.37455 23.8335 2.47146 25.0538 2.93821 26.1521C3.40497 27.2504 4.21626 28.1671 5.24967 28.7639L5.7504 27.8983C5.06727 27.5019 4.49999 26.9333 4.10513 26.2493C3.71028 25.5653 3.50164 24.7897 3.50003 23.9999V23.9999Z" fill="#13ab4e"/>
<path d="M13.5 24C13.4981 23.0349 13.2432 22.0871 12.7607 21.2512C12.2783 20.4153 11.5851 19.7205 10.7504 19.2361L10.2496 20.1017C11.0918 20.5879 11.7539 21.3338 12.1367 22.2278C12.5195 23.1218 12.6024 24.1157 12.373 25.0608C12.1436 26.0058 11.6143 26.8511 10.8643 27.4701C10.1142 28.0892 9.18389 28.4486 8.21249 28.4946L8.85356 27.8536L8.14641 27.1464L6.64641 28.6464C6.55264 28.7402 6.49997 28.8674 6.49997 29C6.49997 29.1326 6.55264 29.2598 6.64641 29.3536L8.14641 30.8536L8.85356 30.1464L8.20297 29.4958C9.62495 29.4417 10.9708 28.8393 11.9583 27.8147C12.9458 26.7901 13.4983 25.423 13.5 24V24Z" fill="#13ab4e"/>
<path d="M8.35358 24.3536C8.44733 24.2598 8.5 24.1326 8.5 24V21.5H7.5V23.7929L6.14642 25.1464L6.85358 25.8536L8.35358 24.3536Z" fill="#13ab4e"/>
</svg>
