<svg width="32" height="32" viewBox="0 0 32 32" fill="none" xmlns="http://www.w3.org/2000/svg">
<path d="M28.5 17.265V7.46C30.1935 7.216 31.5 5.7595 31.5 4C31.5 2.0705 29.93 0.5 28 0.5C26.07 0.5 24.5 2.0705 24.5 4H0.5V24H15.5255C15.7855 28.178 19.258 31.5 23.5 31.5C27.911 31.5 31.5 27.911 31.5 23.5C31.5 20.9805 30.3265 18.7325 28.5 17.265ZM28 1.5C29.3785 1.5 30.5 2.6215 30.5 4C30.5 5.3785 29.3785 6.5 28 6.5C26.6215 6.5 25.5 5.3785 25.5 4C25.5 2.6215 26.6215 1.5 28 1.5ZM1.5 5H24.6475C24.767 5.399 24.957 5.7665 25.201 6.0925L22.143 9.1505C21.947 9.0565 21.731 9 21.5 9C21.269 9 21.053 9.0565 20.8575 9.1505L19.85 8.143C19.9435 7.947 20 7.731 20 7.5C20 6.673 19.327 6 18.5 6C17.673 6 17 6.673 17 7.5C17 7.731 17.0565 7.947 17.1505 8.1425L14.643 10.65C14.447 10.5565 14.231 10.5 14 10.5C13.173 10.5 12.5 11.173 12.5 12C12.5 12.827 13.173 13.5 14 13.5C14.827 13.5 15.5 12.827 15.5 12C15.5 11.769 15.4435 11.553 15.3495 11.3575L17.857 8.85C18.053 8.9435 18.269 9 18.5 9C18.731 9 18.947 8.9435 19.1425 8.8495L20.15 9.857C20.0565 10.053 20 10.269 20 10.5C20 11.327 20.673 12 21.5 12C22.327 12 23 11.327 23 10.5C23 10.269 22.9435 10.053 22.8495 9.8575L25.908 6.7995C26.3655 7.1425 26.9085 7.375 27.5 7.4605V16.583C26.3215 15.8985 24.958 15.5 23.5 15.5C21.11 15.5 18.967 16.559 17.5 18.2265V16H14.5V22H15.646C15.584 22.3265 15.5465 22.661 15.5255 23H1.5V5ZM21.5 10C21.7755 10 22 10.224 22 10.5C22 10.776 21.7755 11 21.5 11C21.2245 11 21 10.776 21 10.5C21 10.224 21.2245 10 21.5 10ZM18 7.5C18 7.224 18.2245 7 18.5 7C18.7755 7 19 7.224 19 7.5C19 7.776 18.7755 8 18.5 8C18.2245 8 18 7.776 18 7.5ZM14.5 12C14.5 12.276 14.2755 12.5 14 12.5C13.7245 12.5 13.5 12.276 13.5 12C13.5 11.724 13.7245 11.5 14 11.5C14.2755 11.5 14.5 11.724 14.5 12ZM23.5 27.5C21.2945 27.5 19.5 25.7055 19.5 23.5C19.5 21.2945 21.2945 19.5 23.5 19.5C25.7055 19.5 27.5 21.2945 27.5 23.5C27.5 25.7055 25.7055 27.5 23.5 27.5ZM16.5 19.6355C16.2605 20.0675 16.0625 20.524 15.9055 21H15.5V17H16.5V19.6355ZM23 16.5255V18.5255C20.477 18.7775 18.5 20.912 18.5 23.5C18.5 24.2315 18.662 24.925 18.9455 25.552L17.211 26.5535C16.76 25.6295 16.5 24.5955 16.5 23.5C16.5 19.809 19.3735 16.7835 23 16.5255ZM23.5 30.5C21.093 30.5 18.966 29.2785 17.706 27.4225L19.4475 26.417C20.3565 27.676 21.832 28.5 23.5 28.5C25.168 28.5 26.6435 27.676 27.5525 26.417L29.294 27.4225C28.034 29.2785 25.907 30.5 23.5 30.5ZM29.789 26.5535L28.0545 25.552C28.338 24.925 28.5 24.2315 28.5 23.5C28.5 20.912 26.523 18.777 24 18.5255V16.5255C27.6265 16.7835 30.5 19.809 30.5 23.5C30.5 24.5955 30.24 25.6295 29.789 26.5535Z" fill="#333333"/>
<path d="M23.5 20.5C21.8455 20.5 20.5 21.8455 20.5 23.5C20.5 25.1545 21.8455 26.5 23.5 26.5C25.1545 26.5 26.5 25.1545 26.5 23.5C26.5 21.8455 25.1545 20.5 23.5 20.5ZM23.5 25.5C22.397 25.5 21.5 24.603 21.5 23.5C21.5 22.397 22.397 21.5 23.5 21.5C24.603 21.5 25.5 22.397 25.5 23.5C25.5 24.603 24.603 25.5 23.5 25.5Z" fill="#333333"/>
<path d="M2.5 6H3.5V7H2.5V6Z" fill="#333333"/>
<path d="M4.5 6H11.5V7H4.5V6Z" fill="#333333"/>
<path d="M2.5 8H3.5V9H2.5V8Z" fill="#333333"/>
<path d="M4.5 8H11.5V9H4.5V8Z" fill="#333333"/>
<path d="M2.5 10H3.5V11H2.5V10Z" fill="#333333"/>
<path d="M4.5 10H11.5V11H4.5V10Z" fill="#333333"/>
<path d="M2.5 12H3.5V13H2.5V12Z" fill="#333333"/>
<path d="M4.5 12H11.5V13H4.5V12Z" fill="#333333"/>
<path d="M2.5 22H5.5V17H2.5V22ZM3.5 18H4.5V21H3.5V18Z" fill="#333333"/>
<path d="M6.5 22H9.5V18H6.5V22ZM7.5 19H8.5V21H7.5V19Z" fill="#333333"/>
<path d="M10.5 22H13.5V14H10.5V22ZM11.5 15H12.5V21H11.5V15Z" fill="#333333"/>
</svg>
