<svg width="32" height="32" viewBox="0 0 32 32" fill="none" xmlns="http://www.w3.org/2000/svg">
<path d="M29.9321 21.3247C29.6731 21.3247 29.4634 21.5347 29.4634 21.7935V29.2666H19.8013V20.3953C19.8013 19.792 19.3105 19.3013 18.7075 19.3013H13.2925C12.6895 19.3013 12.1987 19.7922 12.1987 20.3953V29.2666H2.53662V21.7935C2.53662 21.5347 2.3269 21.3247 2.06787 21.3247C1.80884 21.3247 1.59912 21.5347 1.59912 21.7935V29.4854C1.59912 29.8816 1.92163 30.2041 2.31787 30.2041H29.6821C30.0784 30.2041 30.4009 29.8816 30.4009 29.4854V21.7935C30.4009 21.5347 30.1912 21.3247 29.9321 21.3247ZM13.1362 29.2666V20.3953C13.1362 20.3091 13.2063 20.2388 13.2925 20.2388H18.7075C18.7937 20.2388 18.8638 20.3091 18.8638 20.3953V29.2666H13.1362Z" fill="#333333"/>
<path d="M27.7053 27.4146C28.2556 27.4146 28.7034 26.9668 28.7034 26.4165V21.3013C28.7034 20.751 28.2556 20.3035 27.7053 20.3035H21.9043C21.354 20.3035 20.9062 20.751 20.9062 21.3013V26.4165C20.9062 26.9668 21.354 27.4146 21.9043 27.4146H27.7053ZM21.8438 26.4165V21.3013C21.8438 21.2681 21.8708 21.241 21.9043 21.241H27.7053C27.7388 21.241 27.7659 21.2681 27.7659 21.3013V26.4165C27.7659 26.45 27.7388 26.4771 27.7053 26.4771H21.9043C21.8708 26.4771 21.8438 26.45 21.8438 26.4165Z" fill="#333333"/>
<path d="M10.0957 27.4146C10.646 27.4146 11.0938 26.9668 11.0938 26.4165V21.3013C11.0938 20.751 10.646 20.3035 10.0957 20.3035H4.29468C3.74438 20.3035 3.29663 20.751 3.29663 21.3013V26.4165C3.29663 26.9668 3.74438 27.4146 4.29468 27.4146H10.0957ZM4.23413 26.4165V21.3013C4.23413 21.2681 4.26123 21.241 4.29468 21.241H10.0957C10.1292 21.241 10.1562 21.2681 10.1562 21.3013V26.4165C10.1562 26.45 10.1292 26.4771 10.0957 26.4771H4.29468C4.26123 26.4771 4.23413 26.45 4.23413 26.4165Z" fill="#333333"/>
<path d="M30.6226 8.72314C30.6226 8.22241 31.03 7.81519 31.5312 7.81519C31.7903 7.81519 32 7.60522 32 7.34644V6.19946C32 5.94067 31.7903 5.73071 31.5312 5.73071H23.7932C23.5342 5.73071 23.3245 5.94067 23.3245 6.19946C23.3245 6.4585 23.5342 6.66821 23.7932 6.66821H31.0625V6.93799C30.4207 7.10645 29.9141 7.61279 29.7454 8.25439H22.3711V4.09326C22.3711 2.83569 21.3479 1.8125 20.0903 1.8125H11.9099C10.6521 1.8125 9.62915 2.83569 9.62915 4.09326V5.73071H0.46875C0.209717 5.73071 0 5.94067 0 6.19946V7.34644C0 7.60522 0.209717 7.81519 0.46875 7.81519C0.969971 7.81519 1.37744 8.22241 1.37744 8.72314C1.37744 8.89233 1.46704 9.04053 1.60132 9.12305V12.3247H0.757812C0.361328 12.3247 0.0388184 12.6472 0.0388184 13.0435V15.5959C0.0388184 15.9922 0.361328 16.3147 0.757812 16.3147H1.60132V19.9219C1.60132 20.1807 1.81104 20.3906 2.07007 20.3906C2.3291 20.3906 2.53882 20.1807 2.53882 19.9219V16.3147H29.5V19.9226C29.5 20.1814 29.7097 20.3914 29.9688 20.3914C30.2275 20.3914 30.4375 20.1814 30.4375 19.9226V16.3147H31.281C31.6775 16.3147 32 15.9922 32 15.5959V13.0435C32 12.6472 31.6775 12.3247 31.281 12.3247H30.4375V9.09644C30.5498 9.01074 30.6226 8.87549 30.6226 8.72314V8.72314ZM10.5664 4.09326C10.5664 3.35254 11.1692 2.75 11.9097 2.75H20.0901C20.8308 2.75 21.4333 3.35254 21.4333 4.09326V9.20776C21.4333 9.94849 20.8308 10.551 20.0901 10.551H11.9099C11.1692 10.551 10.5667 9.94849 10.5667 9.20776V4.09326H10.5664ZM31.0625 15.3772H0.976318V13.2622H31.0625V15.3772ZM2.53882 12.3247V9.19189H8.22314C8.48218 9.19189 8.69189 8.98218 8.69189 8.72314C8.69189 8.46436 8.48218 8.25439 8.22314 8.25439H2.25464C2.08594 7.61279 1.57935 7.10645 0.9375 6.93799V6.66821H9.62891V9.20801C9.62891 10.4656 10.6521 11.4888 11.9097 11.4888H20.0901C21.3479 11.4888 22.3708 10.4656 22.3708 9.20801V9.19214H29.4998V12.3247H2.53882Z" fill="#333333"/>
<path d="M14.1875 24.2839H13.8125C13.5535 24.2839 13.3438 24.4939 13.3438 24.7527C13.3438 25.0115 13.5535 25.2214 13.8125 25.2214H14.1875C14.4465 25.2214 14.6562 25.0115 14.6562 24.7527C14.6562 24.4939 14.4465 24.2839 14.1875 24.2839Z" fill="#333333"/>
<path d="M12.6423 4.62085H13.2168L13.8062 7.43823C13.9204 7.98413 14.4082 8.38062 14.9661 8.38062H17.7495C18.2395 8.38062 18.6851 8.07251 18.8582 7.61426L19.7774 5.18091C19.8648 4.94922 19.833 4.68945 19.6924 4.48608C19.5518 4.28247 19.3198 4.16089 19.0725 4.16089H15.1357C14.877 4.16089 14.667 4.37061 14.667 4.62964C14.667 4.88843 14.877 5.09839 15.1357 5.09839H18.8064L17.9812 7.28296C17.9451 7.37866 17.8521 7.44312 17.7498 7.44312H14.9661C14.8496 7.44312 14.7478 7.36011 14.7239 7.24634L14.1321 4.41797C14.043 3.99219 13.6628 3.68335 13.2278 3.68335H12.6426C12.3835 3.68335 12.1738 3.89307 12.1738 4.1521C12.1738 4.41089 12.3835 4.62085 12.6423 4.62085V4.62085Z" fill="#333333"/>
<path d="M15.0469 8.77393H14.9219C14.6628 8.77393 14.4531 8.98364 14.4531 9.24268C14.4531 9.50146 14.6628 9.71143 14.9219 9.71143H15.0469C15.3059 9.71143 15.5156 9.50146 15.5156 9.24268C15.5156 8.98364 15.3059 8.77393 15.0469 8.77393Z" fill="#333333"/>
<path d="M17.0781 8.77393H16.9531C16.6941 8.77393 16.4844 8.98364 16.4844 9.24268C16.4844 9.50146 16.6941 9.71143 16.9531 9.71143H17.0781C17.3372 9.71143 17.5469 9.50146 17.5469 9.24268C17.5469 8.98364 17.3372 8.77393 17.0781 8.77393Z" fill="#333333"/>
</svg>
